<svg width="42" height="50" viewBox="0 0 42 50" fill="none" xmlns="http://www.w3.org/2000/svg">
<path fill-rule="evenodd" clip-rule="evenodd" d="M37.6667 0H4.33335V4.16667H37.6667V0ZM37.6667 50V45.8333H4.33335V50H37.6667ZM4.33335 8.33333H37.6667C39.9584 8.33333 41.8334 10.2083 41.8334 12.5V37.5C41.8334 39.7917 39.9584 41.6667 37.6667 41.6667H4.33335C2.04169 41.6667 0.166687 39.7917 0.166687 37.5V12.5C0.166687 10.2083 2.04169 8.33333 4.33335 8.33333ZM21 14.0625C23.5834 14.0625 25.6875 16.1667 25.6875 18.75C25.6875 21.3333 23.5834 23.4375 21 23.4375C18.4167 23.4375 16.3125 21.3333 16.3125 18.75C16.3125 16.1667 18.4167 14.0625 21 14.0625ZM10.5834 32.2917V35.4167H31.4167V32.2917C31.4167 28.8125 24.4792 27.0833 21 27.0833C17.5209 27.0833 10.5834 28.8125 10.5834 32.2917Z" fill="black"/>
</svg>
